<?xml version="1.0" encoding="UTF-8" standalone="no"?>
<!DOCTYPE svg PUBLIC "-//W3C//DTD SVG 1.1//EN" "http://www.w3.org/Graphics/SVG/1.1/DTD/svg11.dtd">
<svg width="100%" height="100%" viewBox="0 0 1920 1080" version="1.1" xmlns="http://www.w3.org/2000/svg" xmlns:xlink="http://www.w3.org/1999/xlink" xml:space="preserve" xmlns:serif="http://www.serif.com/" style="fill-rule:evenodd;clip-rule:evenodd;stroke-linejoin:round;stroke-miterlimit:2;">
    <g transform="matrix(2.78396,0,0,2.78396,-1487.86,-1145.73)">
        <path d="M641.814,715.387L687.606,715.387L687.606,701.851L655.35,701.851L655.35,598.747L625.398,569.083L591.702,569.083L564.342,586.939L553.686,605.083L563.19,620.923L580.758,620.923L591.126,604.507L582.774,591.259L595.734,582.619L619.926,582.619L641.814,604.219L641.814,627.835L577.59,641.659L554.262,664.699L554.262,696.667L575.574,715.387L612.15,715.387L634.038,696.379L641.814,679.387L641.814,715.387ZM567.798,690.619L567.798,670.459L584.502,654.043L641.814,640.507L641.814,660.091L624.246,688.027L607.254,702.139L580.758,702.139L567.798,690.619ZM569.238,604.795L572.118,600.187L574.998,604.795L573.27,607.387L570.678,607.387L569.238,604.795Z" style="fill-rule:nonzero;"/>
    </g>
    <g transform="matrix(2.78396,0,0,2.78396,-1487.86,-1145.73)">
        <path d="M781.782,715.387L827.574,715.387L827.574,701.851L795.318,701.851L795.318,598.747L765.366,569.083L731.67,569.083L704.31,586.939L693.654,605.083L703.158,620.923L720.726,620.923L731.094,604.507L722.742,591.259L735.702,582.619L759.894,582.619L781.782,604.219L781.782,627.835L717.558,641.659L694.23,664.699L694.23,696.667L715.542,715.387L752.118,715.387L774.006,696.379L781.782,679.387L781.782,715.387ZM707.766,690.619L707.766,670.459L724.47,654.043L781.782,640.507L781.782,660.091L764.214,688.027L747.222,702.139L720.726,702.139L707.766,690.619ZM709.206,604.795L712.086,600.187L714.966,604.795L713.238,607.387L710.646,607.387L709.206,604.795Z" style="fill-rule:nonzero;"/>
    </g>
    <g transform="matrix(2.78396,0,0,2.78396,-1487.86,-1145.73)">
        <path d="M931.542,715.387L977.046,715.387L977.046,701.851L945.078,701.851L945.078,495.643L899.574,495.643L899.574,509.179L931.542,509.179L931.542,600.763L926.646,588.955L902.454,569.083L870.198,569.083L842.838,588.955L827.862,623.227L827.862,661.243L842.838,695.227L870.198,715.387L902.454,715.387L926.646,695.227L931.542,683.419L931.542,715.387ZM841.398,658.363L841.398,625.819L853.782,597.883L874.806,582.619L898.134,582.619L918.87,597.883L931.542,626.107L931.542,658.075L918.87,686.587L898.134,701.851L874.806,701.851L853.782,686.587L841.398,658.363Z" style="fill-rule:nonzero;"/>
    </g>
    <g transform="matrix(2.78396,0,0,2.78396,-1487.86,-1145.73)">
        <path d="M1054.52,715.387L1121.91,715.387L1121.91,701.851L1095.13,701.851L1095.13,628.411L1112.98,600.187L1129.97,582.619L1147.54,582.619L1159.35,603.067L1159.35,701.851L1132.28,701.851L1132.28,715.387L1204.85,715.387L1204.85,701.851L1172.89,701.851L1172.89,599.611L1155.32,569.083L1124.21,569.083L1102.61,591.835L1095.13,605.371L1095.13,599.611L1077.27,569.083L1046.17,569.083L1024.57,591.835L1016.79,605.659L1016.79,569.083L971.286,569.083L971.286,582.619L1003.25,582.619L1003.25,701.851L971.286,701.851L971.286,715.387L1044.15,715.387L1044.15,701.851L1016.79,701.851L1016.79,628.411L1034.93,600.187L1051.93,582.619L1069.49,582.619L1081.59,603.067L1081.59,701.851L1054.52,701.851L1054.52,715.387Z" style="fill-rule:nonzero;"/>
    </g>
</svg>
